<?xml version="1.0" encoding="UTF-8"?><svg id="logo" xmlns="http://www.w3.org/2000/svg" viewBox="0 0 1000 1000"><defs><style>.cls-1{fill:#fdd649;}</style></defs><polygon class="cls-1" points="164.45 913.6 151.72 872.64 126.96 907.65 84.07 907.11 109.72 941.49 95.94 982.11 95.94 982.11 136.56 968.34 170.94 993.99 170.39 951.1 205.41 926.33 164.45 913.6"/><polygon class="cls-1" points="459.67 122.86 497.63 102.9 535.6 122.86 528.34 80.59 559.06 50.64 516.62 44.48 497.63 6.01 478.66 44.48 436.21 50.64 466.93 80.58 459.67 122.86"/><polygon class="cls-1" points="915.93 907.12 873.05 907.66 848.28 872.64 835.55 913.6 794.59 926.33 829.6 951.1 829.06 993.99 863.44 968.34 904.05 982.11 890.29 941.49 915.93 907.12"/><polygon class="cls-1" points="904.05 982.11 904.06 982.11 904.05 982.11 904.05 982.11"/><path class="cls-1" d="M693.95,732.2c4.08-5.09,7.9-10.31,11.49-15.66l71.63,53.67-3.6-35.65-56.59-36.65c9.34-16.93,16.56-34.69,21.64-52.93l65.43,15.94,27.78-22.3-88.25-14.9c1.18-6.42,2.12-12.85,2.8-19.33l103.24,11.9h0l43.63-38.59-43.63-39.12-103.45,11.38c-.73-6.43-1.71-12.84-2.94-19.22l88.6-12.71-27.78-22.65-65.95,14.11c-5.25-18.2-12.58-35.91-22.07-52.76l57.52-34.98,3.88-35.4-72.93,51.87c-3.67-5.34-7.55-10.56-11.69-15.66l81.39-64.59,3.59-58.13-58.52,3.19-65.11,81.16c-5.11-4.05-10.32-7.88-15.66-11.49l53.65-71.64-35.65,3.61-36.65,56.61c-16.91-9.35-34.68-16.57-52.91-21.67l15.91-65.41-22.29-27.79-14.89,88.25c-6.41-1.2-12.85-2.11-19.31-2.81l11.89-103.26-38.57-43.58-39.1,43.61,11.33,103.44c-6.43,.73-12.83,1.7-19.2,2.93l-12.72-88.58-22.65,27.78,14.09,65.92c-18.19,5.24-35.91,12.59-52.76,22.07l-34.99-57.52-35.39-3.86,51.85,72.91c-5.34,3.67-10.57,7.55-15.65,11.68l-64.57-81.38-58.16-3.55,3.2,58.51,81.18,65.07c-4.07,5.11-7.91,10.34-11.52,15.68l-71.6-53.66,3.59,35.67,56.59,36.64c-9.35,16.9-16.55,34.68-21.65,52.91l-65.42-15.89-27.78,22.3,88.26,14.86c-1.2,6.42-2.14,12.89-2.83,19.37l-103.24-11.91-43.61,38.56,43.64,39.13,103.42-11.37c.74,6.44,1.71,12.86,2.95,19.22l-88.59,12.71,27.77,22.65,65.96-14.07c5.23,18.19,12.57,35.89,22.05,52.73l-57.52,34.98-3.86,35.4,72.91-51.87c3.67,5.34,7.56,10.56,11.69,15.68l-81.38,64.56-3.57,58.14,58.51-3.19,65.12-81.15c5.09,4.05,10.32,7.87,15.63,11.5l-53.64,71.61,35.65-3.61,36.66-56.59c16.9,9.37,34.67,16.58,52.92,21.67l-15.94,65.4,22.29,27.79,14.91-88.25c6.41,1.18,12.85,2.12,19.32,2.81l-11.9,103.25,38.58,43.62,39.14-43.64-11.35-103.46c6.42-.73,12.81-1.71,19.18-2.92l12.71,88.59,22.63-27.76-14.06-65.96c18.18-5.26,35.89-12.6,52.74-22.08l34.98,57.54,35.38,3.87-51.86-72.95c5.35-3.66,10.59-7.55,15.68-11.69l64.55,81.43,58.15,3.51-3.2-58.48-81.16-65.13Zm-299.53-60.06h-32.2c-27.22,0-43.12-19.76-49.78-47.48-8.98-37.25-8.6-59.51,0-95.19,7.46-31.12,31.29-47.48,58.51-47.48h128.81v-11.9h-93.66v-35.7c0-27.03,7.2-41.68,46.83-48.69,13.45-2.38,28.74-3.75,44.76-3.82,16.01-.07,32.71,1.14,48.79,3.82,25.42,4.24,46.83,23.3,46.83,48.69v89.18c0,26.15-20.79,47.59-46.83,47.59h-93.55c-31.76,0-58.51,27.27-58.51,58.18v42.79Zm245.72,0h-140.38v11.9h93.55v35.7c0,27.03-23.25,40.77-46.83,47.59-35.47,10.29-63.9,8.72-93.55,0-24.76-7.28-46.83-22.21-46.83-47.59v-89.18c0-25.66,21.2-47.59,46.83-47.59h93.55c31.17,0,58.51-27.14,58.51-59.38v-41.59h35.15c27.25,0,40.1,20.39,46.83,47.48,9.36,37.64,9.78,65.85,0,95.19-9.47,28.5-19.61,47.48-46.83,47.48Z"/><path class="cls-1" d="M447.04,410.59c-9.71,0-17.57,8.03-17.57,17.9s7.87,17.79,17.57,17.79,17.57-7.96,17.57-17.79-7.9-17.9-17.57-17.9Z"/><path class="cls-1" d="M552.38,743.53c9.71,0,17.57-8.03,17.57-17.9s-7.87-17.79-17.57-17.79-17.57,7.96-17.57,17.79,7.9,17.9,17.57,17.9Z"/></svg>