<svg width="23" height="22" viewBox="0 0 23 22" fill="none" xmlns="http://www.w3.org/2000/svg">
<path d="M10.2515 0.358748C5.1659 0.911529 1.07533 5.00211 0.522548 9.97713C-0.0302328 15.1733 2.95478 19.8166 7.48758 21.5855C7.81925 21.6961 8.15092 21.475 8.15092 21.0327V19.2638C8.15092 19.2638 7.7087 19.3744 7.15591 19.3744C5.60813 19.3744 4.94479 18.0477 4.83424 17.2738C4.72368 16.8316 4.50257 16.4999 4.1709 16.1683C3.83923 16.0577 3.72868 16.0577 3.72868 15.9472C3.72868 15.726 4.06034 15.726 4.1709 15.726C4.83424 15.726 5.38702 16.4999 5.60813 16.8316C6.16091 17.7161 6.82425 17.9372 7.15591 17.9372C7.59814 17.9372 7.92981 17.8266 8.15092 17.7161C8.26148 16.9422 8.59314 16.1683 9.25648 15.726C6.71369 15.1733 4.83424 13.736 4.83424 11.3038C4.83424 10.0877 5.38702 8.87157 6.16091 7.98712C6.05035 7.76601 5.9398 7.21323 5.9398 6.43933C5.9398 5.99711 5.9398 5.44433 6.16091 5.00211C6.16091 4.78099 6.38202 4.67044 6.49258 4.67044H6.60313C7.15591 4.78099 8.26148 5.11266 9.25648 6.10767C9.91982 5.88655 10.6937 5.776 11.4676 5.776C12.2415 5.776 13.0154 5.88655 13.6787 6.10767C14.6737 5.11266 15.8898 4.78099 16.4426 4.67044H16.5532C16.7743 4.67044 16.8849 4.78099 16.9954 5.00211C16.9954 5.44433 16.9954 5.99711 16.9954 6.43933C16.9954 7.32378 16.8849 7.76601 16.7743 7.98712C17.5482 8.87157 18.101 9.97713 18.101 11.3038C18.101 13.736 16.2215 15.1733 13.6787 15.726C14.3421 16.2788 14.7843 17.2738 14.7843 18.2688V21.1433C14.7843 21.475 15.116 21.8066 15.5582 21.6961C19.6488 20.0377 22.5232 16.0577 22.5232 11.4144C22.5232 4.78099 16.8849 -0.415145 10.2515 0.358748Z" fill="white"/>
</svg>
