<svg width="15" height="15" viewBox="0 0 15 15" fill="none" xmlns="http://www.w3.org/2000/svg">
<path fill-rule="evenodd" clip-rule="evenodd" d="M0.75 7.94995C0.75 4.08385 3.8839 0.949951 7.75 0.949951C11.6161 0.949951 14.75 4.08385 14.75 7.94995C14.75 11.8161 11.6161 14.95 7.75 14.95C3.8839 14.95 0.75 11.8161 0.75 7.94995ZM7.2551 8.44485L9.5602 10.75C9.8332 11.023 10.277 11.023 10.55 10.75C10.823 10.477 10.823 10.0332 10.55 9.76015L8.45 7.66015V4.44995C8.45 4.06355 8.1364 3.74995 7.75 3.74995C7.3636 3.74995 7.05 4.06355 7.05 4.44995V7.94995C7.05 8.13545 7.1235 8.31325 7.2551 8.44485Z" fill="white"/>
</svg>
