<svg width="14" height="15" viewBox="0 0 14 15" fill="none" xmlns="http://www.w3.org/2000/svg">
<path fill-rule="evenodd" clip-rule="evenodd" d="M2.6 1.64995C2.6 1.26355 2.9136 0.949951 3.3 0.949951C3.6864 0.949951 4 1.26355 4 1.64995V2.34995H9.6V1.64995C9.6 1.26355 9.9136 0.949951 10.3 0.949951C10.6864 0.949951 11 1.26355 11 1.64995V2.34995H11.7C12.47 2.34995 13.1 2.97995 13.1 3.74995V13.55C13.1 14.32 12.47 14.95 11.7 14.95H1.9C1.13 14.95 0.5 14.32 0.5 13.55V3.74995C0.5 2.97995 1.13 2.34995 1.9 2.34995H2.6V1.64995ZM11.7 5.84995H1.9V12.85C1.9 13.2364 2.2136 13.55 2.6 13.55H11C11.3864 13.55 11.7 13.2364 11.7 12.85V5.84995Z" fill="white"/>
</svg>
