<svg width="22" height="22" viewBox="0 0 22 22" fill="none" xmlns="http://www.w3.org/2000/svg">
<path fill-rule="evenodd" clip-rule="evenodd" d="M10.29 4.36674V2.8267C10.29 1.72556 9.53716 0.704019 8.45039 0.527129C7.06512 0.3027 5.8678 1.36514 5.8678 2.7084C5.8678 3.93005 6.85727 4.91952 8.07892 4.91952H9.74058C10.0457 4.91952 10.29 4.67188 10.29 4.36674ZM2.55111 6.02508H8.07892C9.30056 6.02508 10.29 7.01456 10.29 8.23621C10.29 9.45785 9.30056 10.4473 8.07892 10.4473H2.55111C1.32947 10.4473 0.339991 9.45785 0.339991 8.23621C0.339991 7.01456 1.32947 6.02508 2.55111 6.02508ZM5.8678 13.764V19.2918C5.8678 20.5135 6.85727 21.5029 8.07892 21.5029C9.30056 21.5029 10.29 20.5135 10.29 19.2918V13.764C10.29 12.5424 9.30056 11.5529 8.07892 11.5529C6.85727 11.5529 5.8678 12.5424 5.8678 13.764ZM4.20946 11.5529H2.66941C1.56716 11.5529 0.546731 12.3047 0.369841 13.3925C0.145413 14.7778 1.20786 15.9751 2.55111 15.9751C3.77276 15.9751 4.76224 14.9857 4.76224 13.764V12.1024C4.76224 11.7972 4.51459 11.5529 4.20946 11.5529ZM13.6067 15.9751H19.1345C20.3562 15.9751 21.3457 14.9857 21.3457 13.764C21.3457 12.5424 20.3562 11.5529 19.1345 11.5529H13.6067C12.3851 11.5529 11.3956 12.5424 11.3956 13.764C11.3956 14.9846 12.3851 15.9751 13.6067 15.9751ZM11.3956 17.6335V19.1735C11.3956 20.2747 12.1474 21.2951 13.2353 21.4731C14.6205 21.6975 15.8178 20.6351 15.8178 19.2918C15.8178 18.0702 14.8284 17.0807 13.6067 17.0807H11.9451C11.6399 17.0807 11.3956 17.3283 11.3956 17.6335ZM15.8178 8.23621V2.7084C15.8178 1.48676 14.8284 0.497279 13.6067 0.497279C12.3851 0.497279 11.3956 1.48676 11.3956 2.7084V8.23621C11.3956 9.45785 12.3851 10.4473 13.6067 10.4473C14.8273 10.4473 15.8178 9.45675 15.8178 8.23621ZM17.4762 10.4473H19.0162C20.1174 10.4473 21.1378 9.69444 21.3158 8.60768C21.5402 7.22241 20.4778 6.02508 19.1345 6.02508C17.9129 6.02508 16.9234 7.01456 16.9234 8.23621V9.89787C16.9234 10.203 17.1711 10.4473 17.4762 10.4473Z" fill="white"/>
</svg>
