<?xml version="1.0" encoding="UTF-8"?>
<svg width="22px" height="22px" viewBox="0 0 22 22" version="1.1" xmlns="http://www.w3.org/2000/svg" xmlns:xlink="http://www.w3.org/1999/xlink">
    <title>icons8-instagram@3x</title>
    <g id="For-Figma" stroke="none" stroke-width="1" fill="none" fill-rule="evenodd">
        <g id="PythonPH-Rev2---Desktop" transform="translate(-1165.000000, -5192.000000)" fill="#FFFFFF" fill-rule="nonzero">
            <g id="icons8-instagram" transform="translate(1165.320618, 5192.280309)">
                <path d="M5.95538397,0 C2.66682094,0 0,2.66682094 0,5.95538397 L0,15.4839983 C0,18.7725613 2.66682094,21.4393823 5.95538397,21.4393823 L15.4839983,21.4393823 C18.7725613,21.4393823 21.4393823,18.7725613 21.4393823,15.4839983 L21.4393823,5.95538397 C21.4393823,2.66682094 18.7725613,0 15.4839983,0 L5.95538397,0 Z M17.8661519,2.38215359 C18.5236263,2.38215359 19.0572287,2.91575599 19.0572287,3.57323038 C19.0572287,4.23070477 18.5236263,4.76430717 17.8661519,4.76430717 C17.2086775,4.76430717 16.6750751,4.23070477 16.6750751,3.57323038 C16.6750751,2.91575599 17.2086775,2.38215359 17.8661519,2.38215359 Z M10.7196911,4.76430717 C14.0082542,4.76430717 16.6750751,7.43112811 16.6750751,10.7196911 C16.6750751,14.0082542 14.0082542,16.6750751 10.7196911,16.6750751 C7.43112811,16.6750751 4.76430717,14.0082542 4.76430717,10.7196911 C4.76430717,7.43112811 7.43112811,4.76430717 10.7196911,4.76430717 Z M10.7196911,7.14646076 C8.74625049,7.14646076 7.14646076,8.74625049 7.14646076,10.7196911 C7.14646076,12.6931318 8.74625049,14.2929215 10.7196911,14.2929215 C12.6931318,14.2929215 14.2929215,12.6931318 14.2929215,10.7196911 C14.2929215,8.74625049 12.6931318,7.14646076 10.7196911,7.14646076 Z" id="Shape"></path>
            </g>
        </g>
    </g>
</svg>