<svg width="14" height="9" viewBox="0 0 14 9" fill="none" xmlns="http://www.w3.org/2000/svg">
<path d="M13.3973 7.28693C13.3973 7.17979 13.3438 7.05926 13.2634 6.9789L7.02232 0.737828C6.94196 0.65747 6.82143 0.603899 6.71429 0.603899C6.60714 0.603899 6.48661 0.65747 6.40625 0.737828L0.165179 6.9789C0.0848215 7.05926 0.0312501 7.17979 0.0312501 7.28693C0.0312501 7.39408 0.0848215 7.51461 0.165179 7.59497L0.834822 8.26461C0.915179 8.34497 1.03571 8.39854 1.14286 8.39854C1.25 8.39854 1.37054 8.34497 1.45089 8.26461L6.71429 3.00122L11.9777 8.26461C12.058 8.34497 12.1786 8.39854 12.2857 8.39854C12.4062 8.39854 12.5134 8.34497 12.5938 8.26461L13.2634 7.59497C13.3438 7.51461 13.3973 7.39408 13.3973 7.28693Z" fill="white"/>
</svg>
