<svg width="14" height="8" viewBox="0 0 14 8" fill="none" xmlns="http://www.w3.org/2000/svg">
<path d="M13.3973 1.28693C13.3973 1.17979 13.3438 1.05926 13.2634 0.978899L12.5938 0.309256C12.5134 0.228899 12.3929 0.175328 12.2857 0.175328C12.1786 0.175328 12.058 0.228899 11.9777 0.309256L6.71429 5.57265L1.45089 0.309256C1.37054 0.228899 1.25 0.175328 1.14286 0.175328C1.02232 0.175328 0.915179 0.228899 0.834822 0.309256L0.165179 0.978899C0.0848215 1.05926 0.0312501 1.17979 0.0312501 1.28693C0.0312501 1.39408 0.0848215 1.51461 0.165179 1.59497L6.40625 7.83604C6.48661 7.9164 6.60714 7.96997 6.71429 7.96997C6.82143 7.96997 6.94196 7.9164 7.02232 7.83604L13.2634 1.59497C13.3438 1.51461 13.3973 1.39408 13.3973 1.28693Z" fill="white"/>
</svg>
