<svg width="11" height="15" viewBox="0 0 11 15" fill="none" xmlns="http://www.w3.org/2000/svg">
<path fill-rule="evenodd" clip-rule="evenodd" d="M0.759247 5.29072C0.759247 2.50678 3.01607 0.249954 5.80001 0.249954C8.58395 0.249954 10.8408 2.50678 10.8408 5.29072C10.8408 8.14667 7.66941 12.3622 6.35737 13.9832C6.06933 14.3389 5.53069 14.3389 5.24265 13.9832C3.93061 12.3622 0.759247 8.14667 0.759247 5.29072ZM3.99974 5.29072C3.99974 6.28519 4.80554 7.09099 5.80001 7.09099C6.79448 7.09099 7.60028 6.28519 7.60028 5.29072C7.60028 4.29625 6.79448 3.49044 5.80001 3.49044C4.80554 3.49044 3.99974 4.29625 3.99974 5.29072Z" fill="white"/>
</svg>
