<svg width="23" height="22" viewBox="0 0 23 22" fill="none" xmlns="http://www.w3.org/2000/svg">
<path d="M11.032 0.00596619C5.4533 0.188384 0.759085 4.70018 0.373244 10.2689C-0.0347076 16.1604 4.17859 21.1388 9.74951 21.9757V13.9858H7.96513C7.1625 13.9858 6.51243 13.3357 6.51243 12.5331C6.51243 11.7304 7.1625 11.0804 7.96513 11.0804H9.7484V9.14675C9.7484 5.94504 11.3083 4.53987 13.9694 4.53987C14.3641 4.53987 14.7013 4.54872 14.9877 4.56309C15.6908 4.59736 16.2358 5.18331 16.2358 5.88755C16.2358 6.62054 15.6421 7.21422 14.9092 7.21422H14.4205C13.2906 7.21422 12.8959 8.28551 12.8959 9.49279V11.0815H14.9633C15.6167 11.0815 16.1164 11.6641 16.0169 12.3098L15.8975 13.0848C15.8168 13.6044 15.3702 13.988 14.8439 13.988H12.8959V22C18.2944 21.267 22.4568 16.6524 22.4568 11.0561C22.4568 4.82732 17.306 -0.197457 11.032 0.00596619Z" fill="white"/>
</svg>
