<svg width="143" height="169" viewBox="0 0 143 169" fill="none" xmlns="http://www.w3.org/2000/svg">
<path fill-rule="evenodd" clip-rule="evenodd" d="M138.368 97.827L130.939 104.399L113.359 102.373C113.244 103.475 113.083 104.571 112.882 105.664L127.91 108.199L123.18 111.997L112.038 109.282C111.173 112.389 109.944 115.414 108.353 118.296L117.99 124.537L118.603 130.608L106.405 121.468C105.793 122.378 105.143 123.267 104.449 124.134L118.269 135.224L118.813 145.182L108.911 144.583L97.9202 130.718C97.0534 131.422 96.1617 132.085 95.2508 132.708L104.081 145.129L98.0569 144.471L92.0998 134.673C89.232 136.287 86.215 137.538 83.1199 138.432L85.5139 149.664L81.6603 154.391L79.4957 139.306C78.4127 139.513 77.3232 139.679 76.2303 139.804L78.1637 157.42L71.4988 164.85L64.9293 157.423L66.9547 139.842C65.8539 139.726 64.7572 139.565 63.6656 139.364L61.1271 154.391L57.3314 149.66L60.0447 138.524C56.9377 137.657 53.9122 136.429 51.0339 134.835L44.791 144.471L38.7202 145.086L47.8553 132.891C46.9497 132.275 46.0593 131.624 45.1932 130.934L34.1038 144.752L24.1414 145.295L24.7486 135.394L38.6046 124.402C37.9021 123.53 37.239 122.641 36.6154 121.732L24.1992 130.564L24.857 124.537L34.6512 118.58C33.0372 115.713 31.7873 112.699 30.8956 109.601L19.6656 111.997L14.9367 108.141L30.0216 105.978C29.8106 104.894 29.645 103.802 29.5188 102.704L11.9092 104.64L4.47949 97.9762L11.9053 91.41L29.4834 93.438C29.6003 92.3339 29.76 91.2326 29.9637 90.1404L14.936 87.6097L19.6656 83.8133L30.8049 86.5182C31.6743 83.4138 32.9005 80.387 34.4921 77.5093L24.857 71.271L24.2452 65.1976L36.4373 74.3346C37.0517 73.4251 37.7056 72.5353 38.3989 71.6659L24.5751 60.5864L24.0303 50.6234L33.9336 51.2279L44.9277 65.0846C45.7938 64.3808 46.6836 63.719 47.5931 63.0954L38.7636 50.6792L44.7897 51.3377L50.7448 61.1305C53.6132 59.5172 56.6302 58.2647 59.728 57.3729L57.3294 46.1475L61.1855 41.4174L63.3515 56.4996C64.4358 56.2906 65.5254 56.1257 66.6195 56.0008L64.6901 38.3879L71.3484 30.9621L77.9172 38.3833L75.8932 55.966C76.9933 56.0849 78.0907 56.2413 79.1816 56.4444L81.7169 41.4161L85.5139 46.1475L82.8044 57.2869C85.9095 58.1543 88.9343 59.3838 91.8139 60.9761L98.0549 51.3377L104.125 50.7226L94.99 62.9213C95.8988 63.535 96.7866 64.1876 97.656 64.8776L108.744 51.0571L118.708 50.5143L118.097 60.4116L104.239 71.4097C104.943 72.2777 105.604 73.1669 106.229 74.0757L118.648 65.2443L117.988 71.2717L108.193 77.2287C109.808 80.0965 111.057 83.1128 111.95 86.2119L123.18 83.8094L127.91 87.6675L112.823 89.8315C113.033 90.9171 113.199 92.0087 113.324 93.1041L130.939 91.1662L138.368 97.827ZM103.81 99.4844C103.81 107.922 100.172 114.6 94.6772 114.6L71.5356 114.6V116.827H87.1173V123.908C87.1167 127.28 86.0534 131.295 72.6975 131.294H69.6444C56.2885 131.294 54.8414 127.28 54.8421 123.908V108.034C54.8414 103.308 58.8146 99.0198 63.5388 99.0198H81.2444C85.9686 99.0198 89.3418 95.6617 89.3424 90.9368L89.3418 81.2123L94.6772 81.213C100.172 81.2123 103.81 89.2158 103.81 97.6529V99.4844ZM52.6157 104.878V114.6L48.3948 114.601C42.8997 114.601 38.1485 106.597 38.1485 98.1609V96.3281C38.1485 87.8923 42.8997 81.213 48.3948 81.2123L70.4224 81.2123V78.9872L54.8421 78.9872L54.8421 71.9065C54.8421 68.534 57.0179 64.5188 70.3738 64.5188H73.4263C86.7828 64.5188 87.1173 68.534 87.1173 71.9065V87.7805C87.1173 92.5061 84.2567 96.7934 79.5325 96.7934L61.8269 96.7934C57.1027 96.794 52.6157 100.152 52.6157 104.878ZM80.3033 127.265C82.0303 127.265 83.432 125.864 83.432 124.135C83.432 122.408 82.0297 121.007 80.3033 121.007C78.575 121.007 77.174 122.408 77.174 124.135C77.174 125.866 78.575 127.265 80.3033 127.265ZM59.6393 71.6784C59.6393 69.9501 61.041 68.5484 62.768 68.5484C64.4963 68.5484 65.8973 69.9495 65.8973 71.6784C65.8973 73.4061 64.4963 74.8065 62.768 74.8071C61.041 74.8065 59.6393 73.4061 59.6393 71.6784Z" fill="#FDD649"/>
<path d="M2.62207 166.707L4.96744 159.791L0.599365 153.937L7.90292 154.03L12.1198 148.068L14.2878 155.042L21.2621 157.21L15.2991 161.427L15.3924 168.73L9.53856 164.362L2.62207 166.707Z" fill="#FDD649"/>
<path d="M71.0211 0.499981L74.2536 7.04979L81.481 8.09925L76.2507 13.1981L77.4855 20.3965L71.0211 16.9971L64.5567 20.3958L65.7915 13.1974L60.5613 8.09925L67.7893 7.04979L71.0211 0.499981Z" fill="#FDD649"/>
<path d="M140.226 166.707L133.309 164.363L127.456 168.73L127.548 161.427L121.586 157.21L128.56 155.042L130.728 148.068L134.945 154.031L142.248 153.938L137.881 159.791L140.226 166.707Z" fill="#FDD649"/>
</svg>
