<svg width="26" height="16" viewBox="0 0 26 16" fill="none" xmlns="http://www.w3.org/2000/svg">
<path fill-rule="evenodd" clip-rule="evenodd" d="M13.6004 0.500094C13.4313 0.495313 13.2741 0.672946 13.1888 0.964975C13.1036 1.257 13.1036 1.61818 13.1888 1.91021C13.2741 2.20224 13.4313 2.37988 13.6004 2.37509H24.8503C25.0194 2.37988 25.1766 2.20224 25.2619 1.91021C25.3471 1.61818 25.3471 1.257 25.2619 0.964975C25.1766 0.672946 25.0194 0.495313 24.8503 0.500094H13.6004ZM1.87492 7.06259C1.53683 7.05781 1.22235 7.23545 1.0519 7.52747C0.881461 7.8195 0.881461 8.18068 1.0519 8.47271C1.22235 8.76474 1.53683 8.94238 1.87492 8.93759H24.3749C24.713 8.94238 25.0275 8.76474 25.1979 8.47271C25.3684 8.18068 25.3684 7.8195 25.1979 7.52747C25.0275 7.23545 24.713 7.05781 24.3749 7.06259H1.87492ZM1.3995 13.6251C1.23045 13.6203 1.07321 13.7979 0.987989 14.09C0.902767 14.382 0.902767 14.7432 0.987989 15.0352C1.07321 15.3272 1.23045 15.5049 1.3995 15.5001H12.6495C12.8185 15.5049 12.9758 15.3272 13.061 15.0352C13.1462 14.7432 13.1462 14.382 13.061 14.09C12.9758 13.7979 12.8185 13.6203 12.6495 13.6251H1.3995Z" fill="white"/>
</svg>
