<svg width="28" height="22" viewBox="0 0 28 22" fill="none" xmlns="http://www.w3.org/2000/svg">
<path d="M26.8311 0.322904C25.7391 0.838762 23.8806 1.80617 22.9467 1.99107C22.9106 2.00045 22.8811 2.01251 22.8462 2.02189C21.7569 0.947294 20.2643 0.281367 18.6122 0.281367C15.2826 0.281367 12.5827 2.98125 12.5827 6.31089C12.5827 6.48641 12.5679 6.80933 12.5827 6.98083C8.27089 6.98083 5.12214 4.73115 2.76527 1.83966C2.45039 1.45109 2.11542 1.65342 2.04575 1.92944C1.88898 2.55383 1.83538 3.5976 1.83538 4.34258C1.83538 6.21977 3.30257 8.06347 5.58708 9.20639C5.16636 9.31493 4.70275 9.39264 4.22039 9.39264C3.65228 9.39264 2.99841 9.24391 2.42628 8.94378C2.21457 8.83256 1.75767 8.86338 1.893 9.4047C2.43566 11.574 4.91178 13.0974 7.12394 13.5409C6.62148 13.8371 5.54957 13.7768 5.05649 13.7768C4.87426 13.7768 4.24049 13.7339 3.83048 13.683C3.45665 13.6374 2.88184 13.7339 3.36286 14.4628C4.39592 16.0265 6.73269 17.0086 8.74387 17.0461C6.89214 18.4986 3.86398 19.0292 0.963113 19.0292C0.37624 19.0158 0.405718 19.6844 0.8787 19.9322C3.01851 21.0551 6.52367 21.7197 9.02793 21.7197C18.9833 21.7197 24.6417 14.1318 24.6417 6.97949C24.6417 6.86426 24.639 6.62308 24.635 6.38056C24.635 6.35644 24.6417 6.33366 24.6417 6.30955C24.6417 6.27337 24.631 6.23853 24.631 6.20235C24.627 6.02013 24.6229 5.84996 24.6189 5.76153C25.4081 5.19207 26.6167 4.20323 27.2277 3.44619C27.4354 3.18894 27.2679 2.87674 26.9852 2.97455C26.2576 3.22779 24.9995 3.71819 24.2116 3.81199C25.7887 2.76821 26.5685 1.85976 27.2384 0.850821C27.4675 0.506469 27.1808 0.156757 26.8311 0.322904Z" fill="white"/>
</svg>
