<?xml version="1.0" encoding="UTF-8"?>
<svg width="23px" height="22px" viewBox="0 0 23 22" version="1.1" xmlns="http://www.w3.org/2000/svg" xmlns:xlink="http://www.w3.org/1999/xlink">
    <title>icons8-linkedin@3x</title>
    <g id="For-Figma" stroke="none" stroke-width="1" fill="none" fill-rule="evenodd">
        <g id="PythonPH-Rev2---Desktop" transform="translate(-1206.000000, -5192.000000)" fill="#FFFFFF" fill-rule="nonzero">
            <g id="icons8-linkedin" transform="translate(1206.760000, 5192.280000)">
                <path d="M19.0577778,0 L2.38222222,0 C1.06604444,0 0,1.06604444 0,2.38222222 L0,19.0577778 C0,20.3739556 1.06604444,21.44 2.38222222,21.44 L19.0577778,21.44 C20.3739556,21.44 21.44,20.3739556 21.44,19.0577778 L21.44,2.38222222 C21.44,1.06604444 20.3739556,0 19.0577778,0 Z M5.64348444,16.6755556 L5.64348444,16.6755556 C4.81328,16.6755556 4.14030222,16.0025778 4.14030222,15.1723733 L4.14030222,9.83976889 C4.14149333,9.01075556 4.81447111,8.33777778 5.64348444,8.33777778 L5.64348444,8.33777778 C6.47368889,8.33777778 7.14666667,9.01075556 7.14666667,9.84096 L7.14666667,15.1735644 C7.14666667,16.0025778 6.47368889,16.6755556 5.64348444,16.6755556 Z M5.59107556,6.80958222 C4.67272889,6.80958222 4.05930667,6.19735111 4.05930667,5.38024889 C4.05930667,4.56314667 4.67153778,3.95091556 5.69232,3.95091556 C6.61066667,3.95091556 7.22408889,4.56314667 7.22408889,5.38024889 C7.22408889,6.19735111 6.61185778,6.80958222 5.59107556,6.80958222 Z M16.41232,16.6755556 L16.41232,16.6755556 C15.6095111,16.6755556 14.9579733,16.0240178 14.9579733,15.2212089 L14.9579733,12.1183644 C14.9579733,10.8581689 14.18256,10.72 13.8919289,10.72 C13.6012978,10.72 12.6317333,10.7616889 12.6317333,12.1183644 L12.6317333,15.2212089 C12.6317333,16.0240178 11.9801956,16.6755556 11.1773867,16.6755556 L11.0809067,16.6755556 C10.2780978,16.6755556 9.62656,16.0240178 9.62656,15.2212089 L9.62656,9.84096 C9.62656,9.01075556 10.2995378,8.33777778 11.1297422,8.33777778 L11.1297422,8.33777778 C11.9599467,8.33777778 12.6329244,9.01075556 12.6329244,9.84096 C12.6329244,9.84096 12.9688178,8.33777778 15.2509867,8.33777778 C16.7029511,8.33777778 17.8666667,9.50149333 17.8666667,12.1183644 L17.8666667,15.2212089 C17.8666667,16.0240178 17.2151289,16.6755556 16.41232,16.6755556 Z" id="Shape"></path>
            </g>
        </g>
    </g>
</svg>