<?xml version="1.0" encoding="UTF-8"?>
<svg width="27px" height="22px" viewBox="0 0 27 22" version="1.1" xmlns="http://www.w3.org/2000/svg" xmlns:xlink="http://www.w3.org/1999/xlink">
    <title>Shape@3x</title>
    <g id="For-Figma" stroke="none" stroke-width="1" fill="none" fill-rule="evenodd">
        <g id="PythonPH-Rev2---Desktop" transform="translate(-1248.000000, -5192.000000)" fill="#FFFFFF" fill-rule="nonzero">
            <g id="icons8-play_button" transform="translate(1248.200000, 5192.280000)">
                <path d="M26.23988,2.92924 C25.93168,1.77684 25.02316,0.86832 23.87076,0.56012 C21.78036,0 13.4,0 13.4,0 C13.4,0 5.01964,0 2.92924,0.56012 C1.77684,0.86832 0.86832,1.77684 0.56012,2.92924 C0,5.01964 0,10.72 0,10.72 C0,10.72 0,16.42036 0.56012,18.51076 C0.86832,19.66316 1.77684,20.57168 2.92924,20.87988 C5.01964,21.44 13.4,21.44 13.4,21.44 C13.4,21.44 21.78036,21.44 23.87076,20.87988 C25.0245,20.57168 25.93168,19.66316 26.23988,18.51076 C26.8,16.42036 26.8,10.72 26.8,10.72 C26.8,10.72 26.8,5.01964 26.23988,2.92924 Z M10.72,14.20132 L10.72,7.23868 C10.72,6.72278 11.27878,6.40118 11.725,6.65846 L17.755,10.13978 C18.20122,10.39706 18.20122,11.04294 17.755,11.30022 L11.725,14.78154 C11.27878,15.04016 10.72,14.71722 10.72,14.20132 Z" id="Shape"></path>
            </g>
        </g>
    </g>
</svg>