<svg width="180" height="26" viewBox="0 0 180 26" fill="none" xmlns="http://www.w3.org/2000/svg">
<path fill-rule="evenodd" clip-rule="evenodd" d="M49.2682 12.3701C49.2594 12.1788 49.2472 11.9876 49.2316 11.7967V11.79C49.0483 9.71176 48.3617 7.76679 47.1967 6.01005C46.6836 5.23572 46.0867 4.52034 45.4167 3.87685C44.4449 2.94173 43.3198 2.16839 42.0516 1.55685C40.1433 0.645339 38.0348 0.185356 35.7849 0.185356C35.565 0.185356 35.3348 0.188528 35.1032 0.196988C33.5234 0.268541 31.9951 0.568499 30.5584 1.09686C29.1097 1.62029 27.8482 2.31185 26.8165 3.14194C26.6068 3.30866 26.3784 3.51345 26.1334 3.73868L25.9564 3.91175L25.715 4.16835H25.7182L25.605 4.28009L25.55 4.34001L25.2617 4.64349C25.054 4.87714 24.8517 5.1156 24.6551 5.35867L24.6533 5.35514L24.6463 5.34845C24.2515 5.82852 23.8867 6.32516 23.6181 6.77175C23.4354 7.06023 23.2588 7.35249 23.0883 7.64836L20.7334 12.4103L20.7366 12.4135L20.6132 12.6553L20.3531 13.1819C19.8367 14.227 19.2833 15.2686 18.6647 16.1286C17.2866 17.64 15.7286 18.3802 13.7251 18.3802C13.5848 18.3802 13.4417 18.3732 13.2951 18.3651C12.0882 18.3168 11.0533 18.032 10.1351 17.4885C10.0383 17.4313 9.94308 17.3713 9.84963 17.3087C9.09991 16.8103 8.52502 16.1702 8.095 15.3718C7.60999 14.4667 7.39498 13.5418 7.42529 12.5619L7.42638 12.5425C7.42747 12.5236 7.42847 12.5064 7.42847 12.49C7.49332 10.9303 8.0883 9.7167 9.28673 8.66843C9.57204 8.42385 9.87822 8.20471 10.2018 8.01353C10.2465 7.98674 10.2916 7.96171 10.3368 7.93845C11.2268 7.45344 12.2401 7.21199 13.4015 7.21199L13.7632 7.22186C15.6084 7.29201 17.0317 7.86866 18.1667 8.99341L21.7267 2.60194C20.8748 2.03199 19.9132 1.54169 18.8533 1.14339L18.8181 1.13015C18.7891 1.11912 18.7595 1.10789 18.7299 1.09863L18.6347 1.0645C18.5401 1.03046 18.4457 0.99646 18.3482 0.965036C17.2217 0.58859 16.0398 0.357013 14.8234 0.251974C14.7968 0.247327 14.768 0.244314 14.741 0.241498L14.73 0.240343C14.6505 0.235243 14.5705 0.2281 14.4903 0.220952L14.4903 0.220951C14.3822 0.211303 14.2739 0.201645 14.1668 0.196988C13.964 0.189224 13.761 0.184759 13.558 0.183594H13.4428C11.2046 0.191701 9.12494 0.650274 7.22297 1.55826C5.09295 2.58502 3.36616 4.08023 2.08632 6.00652C0.809997 7.93387 0.113149 10.0723 0.0133981 12.3673C0.00482611 12.5617 0.000360399 12.7562 3.97084e-06 12.9507C-0.00175842 16.16 1.16847 18.9833 3.49482 21.3534C5.92339 23.8401 9.08158 25.1802 12.8732 25.3385C13.1164 25.3484 13.3568 25.3551 13.5965 25.3551C15.7416 25.3551 17.7264 24.9733 19.5065 24.2102C19.9516 24.0199 20.3834 23.7968 20.8247 23.5486C21.0651 23.4101 21.2918 23.2635 21.5166 23.107L21.6834 22.9952L21.9632 22.8035C22.2974 22.5615 22.6174 22.3004 22.9216 22.0217L23.0284 21.9202C23.2091 21.7499 23.3858 21.5754 23.5582 21.3967L24.1965 20.6752L24.4397 20.37L24.5532 20.2036L24.6667 20.0401C25.6149 18.4469 28.7015 12.6486 28.7015 12.6486V12.637L28.8848 12.2834L29.0382 12.0067C29.4932 11.1784 29.8217 10.5901 30.2567 9.97189L30.2683 9.95356C31.2834 8.48197 33.0282 7.43335 35.0849 7.25711C38.535 6.96032 41.5582 9.22675 41.8366 12.3201C42.1133 15.4134 39.5399 18.1617 36.0898 18.4603C35.3715 18.5219 34.6732 18.4736 34.0148 18.3284L33.9982 18.3355C31.6344 17.8434 30.0724 16.2008 29.2287 15.3135L29.2283 15.313C29.1686 15.2503 29.1125 15.1913 29.06 15.1367L25.7397 21.2417C25.7397 21.2417 26.7717 22.2818 27.4784 22.8017C28.1869 23.3199 29.1016 23.8302 29.8316 24.1468C31.6031 24.9035 33.5298 25.3568 35.658 25.3568C35.8633 25.3568 35.8634 25.3568 36.0055 25.3511H36.0055L36.1117 25.347C39.8997 25.1883 43.2765 23.7368 45.7117 21.2501C48.0184 18.8885 49.27 16.1921 49.2816 13V12.9049C49.2796 12.7266 49.2752 12.5483 49.2682 12.3701ZM180 23.9402H171.833V21.4482H171.743C170.307 23.6752 167.473 24.6783 164.785 24.6783C157.958 24.6783 153.16 19.1317 153.16 12.7117C153.16 6.29837 157.873 0.79338 164.693 0.79338C167.34 0.79338 170.126 1.75353 171.831 3.71683V1.53852H179.996L180 23.9402H180ZM102.645 6.21025C104.04 6.21025 105.793 6.64697 107.053 7.30188H107.053L109.785 2.23854C107.412 1.18992 104.806 0.798667 102.203 0.798667C97.1664 0.798667 92.0565 3.24028 92.0565 8.74351C92.0565 12.7618 94.6116 13.9817 97.1664 14.6366C97.6882 14.7697 98.2098 14.8795 98.7098 14.9847C100.664 15.3961 102.286 15.7375 102.286 17.1286C102.286 18.3517 100.761 18.83 99.7282 18.83C97.7082 18.83 94.925 17.6985 93.2666 16.5586L90.3047 22.1084C93.0918 23.7686 96.3166 24.6868 99.595 24.6868C104.94 24.6868 110.461 22.2335 110.461 16.3401C110.461 12.1971 107.581 10.4488 103.775 9.70859C103.634 9.68069 103.47 9.65289 103.292 9.62262C102.047 9.41051 100.089 9.07732 100.089 7.7386C100.089 6.60009 101.708 6.21025 102.645 6.21025ZM152.3 8.14183C152.978 6.16196 154.078 4.39852 155.508 2.98367V1.23362H153.936C150.751 1.23362 148.06 2.4532 146.485 5.20851H146.397V1.53852H138.226V23.9402H146.397V14.8967C146.397 11.0582 147.523 8.13196 152.055 8.13196L152.3 8.14183ZM90.4683 8.2236C90.5782 6.10874 91.3364 4.38019 92.5214 3.03161V1.23539H90.9466C87.763 1.23539 85.0683 2.45566 83.5015 5.21204H83.4099V1.53852H75.2448V23.9402H83.4117V14.8967C83.4117 11.0582 84.5347 8.13196 89.0665 8.13196C89.5599 8.13548 90.0217 8.16368 90.4683 8.2236ZM166.848 17.7803C163.532 17.7803 161.599 15.5967 161.599 12.76C161.599 10.0085 163.532 7.697 166.848 7.69489C170.169 7.69489 172.093 10.0085 172.093 12.76C172.093 15.6003 170.169 17.7803 166.848 17.7803ZM136.938 14.0733H136.938L136.941 13.2418C136.941 5.60364 132.313 0.798667 124.325 0.798667C116.83 0.798667 111.585 5.29522 111.585 12.7618C111.585 20.4866 117.285 24.6818 124.91 24.6818C130.16 24.6818 135.323 22.2801 136.625 16.9954H128.768C127.868 18.4818 126.613 19.0468 124.863 19.0468C121.498 19.0468 119.743 17.302 119.743 14.0733H136.938V14.0737L136.938 14.0733ZM124.73 5.94836C126.926 5.94836 128.946 7.34523 129.351 9.48512H119.88C120.381 7.16688 122.348 5.94836 124.73 5.94836ZM57.2832 24.0967C58.685 24.4968 60.2465 24.697 61.9684 24.697V24.6966C63.6881 24.6966 65.2598 24.4968 66.6849 24.0985C68.1099 23.6967 69.3214 23.0671 70.3281 22.2C71.3298 21.3336 72.1081 20.2202 72.6597 18.8568C73.2117 17.4952 73.488 15.8403 73.488 13.8936V1.53323H65.6098V14.1202C65.6098 15.5068 65.2767 16.4934 64.6169 17.0884C63.9532 17.6834 63.0931 17.9802 62.0332 17.9802C60.9966 17.9802 60.1415 17.6615 59.4679 17.0236C58.7964 16.387 58.4598 15.3669 58.4598 13.9584V1.53358H50.5816V14.0585C50.5816 15.9386 50.8516 17.5519 51.3916 18.8903C51.9316 20.2283 52.6982 21.3315 53.6932 22.1986C54.6848 23.065 55.8814 23.6967 57.2832 24.0967Z" fill="white"/>
</svg>
