<?xml version="1.0" encoding="UTF-8"?>
<svg width="180px" height="55px" viewBox="0 0 180 55" version="1.1" xmlns="http://www.w3.org/2000/svg" xmlns:xlink="http://www.w3.org/1999/xlink">
    <title>upwork@3x</title>
    <defs>
        <filter id="filter-1">
            <feColorMatrix in="SourceGraphic" type="matrix" values="0 0 0 0 1.000000 0 0 0 0 1.000000 0 0 0 0 1.000000 0 0 0 1.000000 0"></feColorMatrix>
        </filter>
    </defs>
    <g id="For-Figma" stroke="none" stroke-width="1" fill="none" fill-rule="evenodd">
        <g id="upwork" transform="translate(-735.000000, -4429.000000)" filter="url(#filter-1)">
            <g transform="translate(735.000000, 4429.860914)">
                <path d="M49.216185,33.9353149 C46.2893441,33.9353149 43.5468158,32.6961296 41.0550791,30.6788922 L41.6618332,27.8311932 L41.6882138,27.7256707 C42.2284887,24.6936591 43.9425249,19.6043116 49.216185,19.6043116 C53.1711663,19.6043116 56.3881939,22.8213392 56.3881939,26.7763204 C56.3748277,30.7182873 53.1581518,33.9353149 49.216185,33.9353149 L49.216185,33.9353149 Z M49.216185,12.3401465 C42.4789286,12.3401465 37.2583815,16.7172175 35.1359734,23.915607 C31.8925652,19.0506705 29.4402236,13.2103549 28.0033596,8.29265722 L20.7522089,8.29265722 L20.7522089,27.1586634 C20.7522089,30.8765709 17.7198456,33.9085825 14.0019381,33.9085825 C10.2840306,33.9085825 7.25201904,30.8765709 7.25201904,27.1586634 L7.25201904,8.29265722 L8.21784356e-05,8.29265722 L8.21784356e-05,27.1586634 C-0.0262157377,34.8846651 6.26257025,41.2258606 13.9882202,41.2258606 C21.7142219,41.2258606 28.0030079,34.8846651 28.0030079,27.1586634 L28.0030079,23.9947488 C29.4134912,26.9346041 31.1405419,29.90084 33.2369212,32.5378459 L28.7937227,53.4207378 L36.2165233,53.4207378 L39.4331991,38.2726391 C42.2545176,40.0788316 45.4979258,41.2128462 49.2158333,41.2128462 C57.1655425,41.2128462 63.6389928,34.7000008 63.6389928,26.7499398 C63.6389928,18.813245 57.1655425,12.3401465 49.2158333,12.3401465 L49.216185,12.3401465 Z" id="Shape" fill="#FFFFFF" fill-rule="nonzero"></path>
                <path d="M85.7747879,13.1575937 L90.45506,32.0235999 L95.6101832,13.1575937 L101.7537,13.1575937 L93.8303713,40.4217796 L87.6865028,40.4217796 L82.8219181,21.4368847 L77.9699961,40.4084134 L71.8264793,40.4084134 L63.9024472,13.1445792 L70.0463157,13.1445792 L75.2010871,32.0105855 L79.8813593,13.1445792 L85.7744361,13.1445792 L85.7744361,13.1579454 L85.7747879,13.1575937 Z M116.45368,12.3401465 C108.47759,12.3401465 102.017506,18.813245 102.017506,26.7763204 C102.017506,34.7527621 108.490605,41.2128462 116.45368,41.2128462 C124.430122,41.2128462 130.90322,34.7527621 130.90322,26.7763204 C130.90322,18.8002306 124.430122,12.3401465 116.45368,12.3401465 Z M116.45368,35.2800226 C111.760393,35.2800226 107.963344,31.4829732 107.963344,26.7896866 C107.963344,22.0960483 111.773408,18.2993507 116.45368,18.2993507 C121.147318,18.2993507 124.944016,22.0960483 124.944016,26.7896866 C124.944016,31.4699588 121.147318,35.2800226 116.45368,35.2800226 Z M148.450899,19.2617154 C144.32462,19.2617154 140.989056,22.6102943 140.989056,26.7235592 L140.989056,40.4084134 L134.80544,40.4084134 L134.80544,13.1575937 L140.989056,13.1575937 L140.989056,17.3500004 C140.989056,17.3500004 143.62571,13.1442275 149.044287,13.1442275 L150.942636,13.1442275 L150.942636,19.2617154 L148.450899,19.2617154 Z M169.202592,25.7217995 C173.592325,23.2430772 176.572279,18.5364244 176.572279,13.1442275 L170.388664,13.1442275 C170.388664,17.6925966 166.697489,21.3841235 162.14912,21.3841235 L161.318306,21.3841235 L161.318306,0 L155.135395,0 L155.135395,40.4084134 L161.318306,40.4084134 L161.318306,27.567387 L162.056963,27.567387 C162.663366,27.567387 163.454432,27.9630962 163.810395,28.4506099 L172.590566,40.4084134 L180,40.4084134 L169.202592,25.7217995 L169.202592,25.7217995 Z" id="Shape" fill="#FFFFFF" fill-rule="nonzero"></path>
            </g>
        </g>
    </g>
</svg>