<svg width="180" height="28" viewBox="0 0 180 28" fill="none" xmlns="http://www.w3.org/2000/svg">
<path fill-rule="evenodd" clip-rule="evenodd" d="M19.3464 0.800781H7.99424C7.87723 1.2275 0.23368 25.8784 0 26.6214H11.345C11.469 26.1879 19.1125 1.53704 19.3464 0.800781ZM112.528 17.65C113.23 15.4622 112.996 13.6733 111.861 12.2628C109.99 9.92379 105.738 8.67851 99.4977 8.67851C89.0815 8.67851 82.0228 12.146 80.1102 18.1934C79.4496 20.3812 79.6834 22.2115 80.8117 23.6147C82.69 25.9541 86.9417 27.1648 93.1819 27.1648C103.591 27.1648 110.657 23.6974 112.528 17.65ZM173.918 12.2628C175.046 13.6733 175.287 15.4622 174.62 17.65C172.749 23.6974 165.69 27.1648 155.232 27.1648C148.992 27.1648 144.747 25.9541 142.869 23.6147C141.741 22.2115 141.548 20.3812 142.208 18.1934C144.08 12.146 151.138 8.67851 161.596 8.67851C167.795 8.67851 172.088 9.92379 173.918 12.2628H173.918ZM162.683 12.9645C163.467 13.9829 163.467 15.5445 162.649 18.1934C161.362 22.3283 159.718 23.9312 156.876 23.9312C155.59 23.9312 154.689 23.5802 154.145 22.913C153.361 21.9013 153.361 20.3397 154.186 17.6496C155.473 13.5494 157.07 11.9119 159.952 11.9119C161.245 11.9119 162.098 12.2628 162.683 12.9645ZM176.257 23.03V23.4977H175.205V26.2702H174.661V23.4977H173.609V23.03H176.257ZM180 23.03V26.2706H179.456V23.7732H179.422L178.521 26.2706H178.053L177.159 23.7732V26.2706H176.608V23.03H177.427L178.328 25.5687L179.181 23.03H180ZM145.992 9.26305H134.916C134.757 9.49707 125.827 21.4339 125.827 21.4339C125.827 21.4339 124.382 9.77224 124.307 9.26305H113.891C113.966 9.88925 115.996 26.1122 116.078 26.6214H133.079C133.278 26.3461 145.325 10.1576 145.992 9.26305ZM100.55 18.1934C101.369 15.5445 101.41 13.9829 100.591 12.9645C100.041 12.2628 99.147 11.9119 97.9014 11.9119C95.012 11.9119 93.3746 13.5494 92.129 17.6496C91.2691 20.3397 91.2691 21.9013 92.0876 22.913C92.6312 23.5802 93.5326 23.9312 94.7777 23.9312C97.6675 23.9312 99.305 22.3283 100.55 18.1934ZM79.2567 11.41C79.6833 11.9536 79.9173 12.4968 79.8003 13.2812L75.4728 26.656H64.004L68.0634 14.1759C68.2147 13.6324 68.0221 13.1645 67.7124 12.8136C67.1619 12.1463 65.9925 11.7197 61.9747 11.9947C61.9747 11.9947 57.2208 26.4634 57.138 26.656H45.6759C45.7176 26.5388 46.4975 24.1619 47.4552 21.2429L47.4556 21.2418L47.4562 21.2397L47.4575 21.2358L47.4579 21.2345C49.032 16.437 51.0847 10.1805 51.1318 10.0821C55.1155 9.3804 60.3784 8.71983 65.8411 8.71983C73.2505 8.72 77.7707 9.61442 79.2567 11.41ZM36.8968 12.6966C37.2893 13.1645 37.6401 13.9832 37.4061 15.0771L26.68 20.1063L28.0423 14.9945C28.7442 12.7723 30.8151 11.4444 33.5809 11.4444C35.5277 11.4444 36.4704 12.1463 36.8968 12.6966ZM47.038 15.0356C47.038 15.8544 46.8454 16.5562 46.6871 16.8658C46.3363 16.9484 26.3295 21.3929 26.3295 21.3929C26.3295 21.3929 26.1297 22.37 26.8729 22.8788C27.8499 23.5807 28.9025 23.7734 30.6914 23.8491C35.1015 24.0418 41.0729 21.4686 42.7452 20.7324C42.5398 21.3852 41.4844 23.7341 40.9662 24.8874L40.9658 24.8883C40.807 25.2417 40.6988 25.4825 40.681 25.5277C39.9378 25.8029 35.803 27.1238 27.6914 27.1652C24.6091 27.2065 19.1122 26.8143 16.8487 23.9659C15.7204 22.5627 15.5211 20.5742 16.2984 18.0769C18.1353 12.1118 25.0016 8.67885 35.06 8.67885C40.681 8.67885 44.3479 9.73143 46.0267 11.7954C46.6871 12.6553 47.038 13.7492 47.038 15.0356Z" fill="white"/>
</svg>
