<?xml version="1.0" encoding="UTF-8"?>
<svg width="180px" height="45px" viewBox="0 0 180 45" version="1.1" xmlns="http://www.w3.org/2000/svg" xmlns:xlink="http://www.w3.org/1999/xlink">
    <title>freelancer@3x</title>
    <defs>
        <filter id="filter-1">
            <feColorMatrix in="SourceGraphic" type="matrix" values="0 0 0 0 1.000000 0 0 0 0 1.000000 0 0 0 0 1.000000 0 0 0 1.000000 0"></feColorMatrix>
        </filter>
    </defs>
    <g id="For-Figma" stroke="none" stroke-width="1" fill="none" fill-rule="evenodd">
        <g id="freelancer" transform="translate(-735.000000, -4137.000000)" filter="url(#filter-1)">
            <g transform="translate(735.000000, 4137.918348)">
                <path d="M24.7248,6.5592 L0,5.184 L16.1136,22.464 L24.7248,6.5592 Z M12.3552,4.716 L23.76,5.5296 L9.6264,0 L12.3552,4.716 Z M26.6328,5.5296 L32.7096,0 L36.8064,5.8752 L26.6328,5.5296 Z M25.9488,6.624 L16.9992,23.148 L25.128,32.0904 L34.272,23.5584 L36.7992,7.1712 L25.9488,6.624 Z M17.4816,25.74 L13.176,43.704 L24.372,33.048 L17.4816,25.74 Z M34.0056,0.2736 L38.376,5.8752 L58.6584,0.2736 L34.0056,0.2736 Z" id="Shape" fill="#FFFFFF" fill-rule="nonzero"></path>
                <path d="M53.0064,10.4472 C53.0136,11.8368 52.9272,13.2192 52.7472,14.5944 C51.3144,14.6448 49.5216,14.1264 49.572,16.5888 C51.7752,16.5384 52.3656,16.5888 52.3656,16.5888 C52.3656,16.5888 52.2648,20.9448 48.9816,20.7792 C47.8008,27.4392 46.6776,33.2784 46.6776,33.2784 L41.4216,33.2784 L44.2872,14.652 C44.2872,14.652 44.9496,10.8648 48.384,10.4616 L53.0064,10.4472 Z M50.7024,33.2928 L53.4672,16.2936 L58.284,16.2936 L58.6584,17.5752 C58.6584,17.5752 59.868,15.8832 63.504,16.2936 C62.6328,20.4408 62.4816,21.06 62.4816,21.06 C62.4816,21.06 58.4856,20.6496 58.176,21.9312 C57.8664,23.2128 56.2824,33.3 56.2824,33.3 L50.7024,33.2928 Z M93.3624,19.3608 C92.2896,17.4168 90.3384,15.6384 85.7304,16.2216 C81.1224,16.8048 77.8176,21.3408 78.048,27.4968 C78.516,32.616 82.152,33.5232 83.4264,33.696 C92.0808,34.7184 92.1888,30.2112 92.2392,28.5192 C90.4464,28.5192 89.604,28.5552 88.8552,28.5696 C88.6392,29.2752 85.1328,28.9296 85.1328,28.9296 C85.1328,28.9296 83.8008,28.8288 83.7,26.4744 L93.384,26.4744 C93.3768,26.4744 94.4424,21.312 93.3624,19.3608 Z M88.3944,23.508 C87.4224,23.6088 84.1464,23.508 84.1464,23.508 C85.428,18.4392 88.956,20.6424 88.3944,23.508 Z M161.3736,19.3608 C160.3008,17.4168 158.3496,15.6384 153.7416,16.2216 C149.1336,16.8048 145.8288,21.3408 146.0592,27.4968 C146.5272,32.616 150.1632,33.5232 151.4376,33.696 C160.092,34.7184 160.2,30.2112 160.2504,28.5192 C158.4576,28.5192 157.6152,28.5552 156.8664,28.5696 C156.6504,29.2752 153.144,28.9296 153.144,28.9296 C153.144,28.9296 151.812,28.8288 151.7112,26.4744 L161.3808,26.4744 C161.3736,26.4744 162.4248,21.312 161.3736,19.3608 Z M156.4056,23.508 C155.4336,23.6088 152.1576,23.508 152.1576,23.508 C153.4176,18.4392 156.9528,20.6424 156.384,23.508 L156.4056,23.508 Z" id="Shape" fill="#FFFFFF" fill-rule="nonzero"></path>
                <path d="M77.5584,19.3608 C76.4856,17.4168 74.5344,15.6384 69.9264,16.2216 C65.3184,16.8048 62.0136,21.3408 62.244,27.4968 C62.712,32.616 66.348,33.5232 67.6224,33.696 C76.2768,34.7184 76.3848,30.2112 76.4352,28.5192 C74.6424,28.5192 73.8,28.5552 73.0512,28.5696 C72.8352,29.2752 69.3288,28.9296 69.3288,28.9296 C69.3288,28.9296 67.9968,28.8288 67.896,26.4744 L77.5656,26.4744 C77.5584,26.4744 78.6384,21.312 77.5584,19.3608 L77.5584,19.3608 Z M72.5832,23.508 C71.6112,23.6088 68.3352,23.508 68.3352,23.508 C69.6384,18.4392 73.152,20.6424 72.5832,23.508 L72.5832,23.508 Z M96.9984,10.8576 L93.4632,33.2856 L99.1008,33.2856 L102.888,10.8576 L96.9984,10.8576 Z M115.8984,33.2928 L118.764,16.2288 L123.7824,16.2288 L123.7824,17.532 C123.7824,17.532 125.5248,15.6384 130.1328,16.2288 C134.7408,16.812 132.4368,24.9984 132.4368,24.9984 L131.2056,33.3072 L125.676,33.3072 C125.676,33.3072 126.9576,24.9264 127.2096,22.7016 C126.9504,20.1888 123.984,20.2968 123.264,22.0896 C122.904,24.2928 121.2696,33.3072 121.2696,33.3072 L115.8984,33.2928 Z M140.8392,21.1032 L145.908,21.1032 L146.376,17.7768 C146.376,17.7768 146.988,16.2432 144.8424,16.2144 C142.6968,16.1856 139.464,16.2144 139.464,16.2144 C139.464,16.2144 133.164,17.1072 133.524,29.4552 C133.8552,31.6584 135.5328,33.4224 137.7144,33.8544 C138.1824,33.9552 141.4368,33.8544 141.4368,33.8544 C141.4368,33.8544 145.0728,33.3864 144.5616,28.836 C140.7744,28.9368 139.1832,29.0952 138.9744,28.0152 C138.7584,26.9424 139.4064,21.5136 140.8392,21.1032 L140.8392,21.1032 Z M162.6552,21.9168 L169.2792,16.2072 L166.752,33.2928 L161.1576,33.2928 L162.6552,21.9168 Z" id="Shape" fill="#FFFFFF" fill-rule="nonzero"></path>
                <polygon id="Path" fill="#FFFFFF" fill-rule="nonzero" points="170.6472 16.2072 169.6896 22.3272 180 16.1136"></polygon>
                <path d="M112.6224,16.2216 C108.3744,16.1856 107.3952,16.2576 105.8112,16.2216 C104.22,16.1856 103.1472,18.5472 103.248,21.0528 L109.764,21.0528 C109.764,21.0528 110.4264,20.952 110.484,21.5208 C110.5128,22.068 110.5128,22.6152 110.484,23.1624 L105.7608,23.1624 C105.7608,23.1624 99.1008,23.7744 101.2032,31.8168 C101.6136,33.048 103.6584,33.9048 104.7888,33.8616 C105.9192,33.8184 108.7344,32.7888 109.1952,32.3784 L109.2456,33.3504 L114.264,33.3 C114.264,33.3 115.956,22.8024 116.1576,21.9312 C116.3592,21.06 116.7192,17.6976 112.6224,16.2216 L112.6224,16.2216 Z M108.2304,29.5704 C106.2504,29.5704 105.9768,27.6552 107.5536,26.6328 C109.1232,25.9488 110.0808,26.3592 110.0808,26.3592 C110.0808,26.3592 110.1528,29.6424 108.2304,29.5704 L108.2304,29.5704 Z" id="Shape" fill="#FFFFFF" fill-rule="nonzero"></path>
            </g>
        </g>
    </g>
</svg>