<?xml version="1.0" encoding="UTF-8"?>
<svg width="180px" height="52px" viewBox="0 0 180 52" version="1.1" xmlns="http://www.w3.org/2000/svg" xmlns:xlink="http://www.w3.org/1999/xlink">
    <title>accenture-2@3x</title>
    <defs>
        <filter id="filter-1">
            <feColorMatrix in="SourceGraphic" type="matrix" values="0 0 0 0 1.000000 0 0 0 0 1.000000 0 0 0 0 1.000000 0 0 0 1.000000 0"></feColorMatrix>
        </filter>
    </defs>
    <g id="For-Figma" stroke="none" stroke-width="1" fill="none" fill-rule="evenodd">
        <g id="accenture-2" transform="translate(-1020.000000, -4124.000000)" filter="url(#filter-1)">
            <g transform="translate(1020.000000, 4124.032107)">
                <path d="M13.0947127,40.592032 C13.0947127,43.5950828 11.8611167,47.6329097 8.21843891,47.6329097 C6.39211915,47.6329097 5.31708093,46.69194 5.31708093,44.8216225 C5.31791108,41.2914294 10.4884714,40.592032 13.0947127,40.592032 M18.3192324,50.9294169 L18.3192324,34.241005 C18.3192324,28.8305327 14.7687008,26.9610454 9.79446985,26.9610454 C4.92981813,26.9610454 0.878708847,29.0276923 0.878708847,34.3958271 L6.20741181,34.3958271 C6.20741181,32.0772312 7.43934751,30.8037882 9.79488492,30.8037882 C12.4982532,30.8037882 13.0951277,32.7645915 13.0951277,35.080697 L13.0951277,37.3959724 C7.77763173,37.5429081 0,38.2838129 0,45.3238605 C0,49.3098033 3.15330709,51.4756525 6.88979129,51.4756525 C9.45203489,51.4756525 11.8133833,50.6372057 13.0004912,48.2243883 L13.0955428,48.2243883 L13.0955428,50.929832 L18.3192324,50.929832 M34.5191037,35.5239947 L40.3280458,35.5239947 C40.3280458,29.7623709 37.1344766,26.9610454 31.4176807,26.9610454 C24.3900853,26.9610454 20.6851466,31.3857201 20.6851466,38.176309 C20.6851466,46.3482598 24.8707395,51.4756525 33.2348689,51.4756525 C35.5526347,51.4756525 37.8637593,51.0863144 40.0823227,50.3918978 L40.0823227,47.0451668 C38.7980879,47.4863891 37.4690252,47.6329097 36.1503393,47.6329097 C29.9333808,47.6329097 26.4949188,43.1044669 26.4949188,37.2004732 C26.4949188,34.3970724 27.5284498,30.8037882 30.9764585,30.8037882 C33.829668,30.8037882 34.5191037,33.1153279 34.5191037,35.5239947 M55.510989,35.5239947 L61.3261572,35.5239947 C61.3261572,29.7623709 58.1193057,26.9610454 52.4120565,26.9610454 C45.3744993,26.9610454 41.6807676,31.3857201 41.6807676,38.176309 C41.6807676,46.3482598 45.8617946,51.4756525 54.2317351,51.4756525 C56.5432748,51.4756525 58.863116,51.0863144 61.0729629,50.3918978 L61.0729629,47.0451668 C59.7970295,47.4863891 58.4646462,47.6329097 57.1368287,47.6329097 C50.9373033,47.6329097 47.4814082,43.1044669 47.4814082,37.2004732 C47.4814082,34.3970724 48.5244858,30.8037882 51.9662684,30.8037882 C54.8203081,30.8037882 55.510989,33.1153279 55.510989,35.5239947 M76.9320595,34.4883883 L68.3666199,34.4883883 C68.6164936,32.1237193 70.4303612,30.4435052 72.7751067,30.4435052 C75.2962581,30.4435052 76.9320595,31.9805193 76.9320595,34.4883883 M82.1013746,37.7944422 L82.1013746,36.4595685 C82.1013746,30.7506589 79.1481325,26.9610454 73.1897643,26.9610454 C66.2040912,26.9610454 63.1421001,31.3417224 63.1421001,37.987866 C63.1421001,45.7082177 66.6357668,51.4764827 74.9542382,51.4764827 C77.1732167,51.4764827 79.3996666,51.232835 81.4966137,50.5400787 L81.4966137,46.7517104 C80.1169121,47.240251 78.5022794,47.6324947 77.0266961,47.6324947 C71.7137659,47.6324947 68.2072319,42.7636922 68.2072319,37.7948572 L82.1013746,37.7948572 M98.2933595,50.9294169 L103.769828,50.9294169 L103.769828,34.6867931 C103.769828,30.6556073 101.880418,26.9610454 97.4088397,26.9610454 C94.0604484,26.9610454 91.704911,28.8861525 90.4679944,31.8800717 L90.3712825,31.8800717 L90.3712825,27.4890179 L84.8960589,27.4890179 L84.8960589,50.9310772 L90.3712825,50.9310772 L90.3712825,40.792097 C90.3712825,37.6350543 91.9485587,32.0788915 95.8718256,32.0788915 C96.433834,32.0788915 97.0518772,32.1237193 97.4594785,32.5255097 C98.3821851,33.406709 98.2933595,36.4068542 98.2933595,37.5429081 L98.2933595,50.9294169 M115.122481,31.2910835 L122.082835,31.2910835 L122.082835,27.4890179 L115.122481,27.4890179 L115.122481,19.7213479 L109.681708,21.9349304 L109.681708,27.4877727 L105.096816,27.4877727 L105.096816,31.2898383 L109.681708,31.2898383 L109.681708,45.0212725 C109.681708,49.8996216 112.068376,51.4748224 116.859145,51.4748224 C118.342615,51.4748224 119.8568,51.3324525 121.325327,51.0854842 L121.325327,47.2390058 C120.502238,47.4419763 119.669602,47.6304193 118.818703,47.6304193 C115.412617,47.6304193 115.121651,45.121305 115.121651,42.3594114 L115.121651,31.2910835 M137.892123,50.9294169 L143.356969,50.9294169 L143.356969,27.4886028 L137.892123,27.4886028 L137.892123,37.6342241 C137.892123,40.7908518 136.314846,46.3486749 132.369166,46.3486749 C131.835797,46.3486749 131.185378,46.309243 130.791889,45.9132636 C129.85175,45.0229328 129.958008,42.0186368 129.958008,40.8925446 L129.958008,27.4881877 L124.501463,27.4881877 L124.501463,43.7457542 C124.501463,47.7856565 126.356008,51.4760676 130.846264,51.4760676 C134.153148,51.4760676 136.562645,49.5028121 137.798316,46.5582866 L137.892123,46.5582866 L137.892123,50.9294169 M152.269825,40.6451613 C152.269825,35.1305058 154.334811,32.6745208 159.941198,32.6745208 L159.941198,26.9610454 C156.010875,26.9610454 154.178329,28.5868851 152.361971,31.8256971 L152.26941,31.8256971 L152.26941,27.4877727 L146.795431,27.4877727 L146.795431,50.929832 L152.26941,50.929832 L152.26941,40.6451613 M174.83276,34.4883883 L166.264,34.4883883 C166.511383,32.1237193 168.330647,30.4435052 170.688675,30.4435052 C173.207336,30.4435052 174.83276,31.9805193 174.83276,34.4883883 M180,37.7944422 L180,36.4595685 C180,30.7506589 177.050079,26.9610454 171.087145,26.9610454 C164.098981,26.9610454 161.045291,31.3417224 161.045291,37.987866 C161.045291,45.7082177 164.541448,51.4764827 172.853694,51.4764827 C175.071842,51.4764827 177.290821,51.232835 179.406446,50.5400787 L179.406446,46.7517104 C178.030065,47.240251 176.404225,47.6324947 174.937774,47.6324947 C169.60658,47.6324947 166.112499,42.7636922 166.112499,37.7948572 L179.999585,37.7948572" id="Shape" fill="#FFFFFF" fill-rule="nonzero"></path>
                <path d="M105.09059,0 L105.09059,3.85394976 C105.09059,3.85394976 116.003265,8.08271015 117.565599,8.69079161 C116.003265,9.28974148 105.09059,13.4973332 105.09059,13.4973332 L105.09059,17.345887 L122.086985,10.440738 L122.086985,6.90846956 L105.09059,0" id="Path" fill="#FFFFFF" fill-rule="nonzero"></path>
            </g>
        </g>
    </g>
</svg>