<svg width="180" height="41" viewBox="0 0 180 41" fill="none" xmlns="http://www.w3.org/2000/svg">
<path fill-rule="evenodd" clip-rule="evenodd" d="M30.3595 3.43598L20.5544 40.1676V40.1679H27.4721C28.401 40.1679 29.231 39.8863 29.9608 39.3217C30.6903 38.7578 31.1881 38.0276 31.4543 37.1319L38.7211 10.1051H44.2962C45.1585 10.1051 45.9548 10.2964 46.685 10.6775C47.4145 11.0596 48.0118 11.5571 48.4766 12.1706C48.9414 12.7847 49.2648 13.4896 49.4476 14.2859C49.6294 15.0822 49.6048 15.8957 49.3727 16.7247C49.0739 17.8866 48.452 18.8323 47.5059 19.5618C46.5606 20.292 45.4904 20.6569 44.2962 20.6569H41.4091C40.4462 20.6569 39.6003 20.9392 38.8708 21.5028C38.1403 22.0677 37.6428 22.7972 37.3774 23.693L35.5858 30.4124H44.5946C46.2533 30.4124 47.8462 30.1474 49.3727 29.6158C50.8985 29.0856 52.2844 28.3389 53.5289 27.3763C54.7731 26.4145 55.8429 25.261 56.7394 23.9173C57.6351 22.5733 58.2985 21.1048 58.7303 19.5122L58.9289 18.7655C59.5589 16.4434 59.626 14.1787 59.1282 11.9716C58.6304 9.76516 57.7174 7.79922 56.3906 6.0734C55.0631 4.34863 53.3956 2.96277 51.3886 1.91758C49.3805 0.872383 47.1828 0.349609 44.794 0.349609H34.3912C33.4279 0.349609 32.5821 0.631914 31.8529 1.19617C31.1224 1.76078 30.6246 2.50715 30.3595 3.43598ZM26.1292 10.1547H14.8806C13.2208 10.1547 11.6282 10.4208 10.1025 10.9513C8.57598 11.4822 7.19047 12.2205 5.94629 13.1662C4.70176 14.1119 3.62352 15.2566 2.71086 16.6002C1.7973 17.9455 1.116 19.4345 0.695353 21.0053L0.496368 21.7517C-0.100937 24.0748 -0.159296 26.3396 0.321993 28.5463C0.802579 30.7531 1.70715 32.719 3.03465 34.4438C4.36145 36.17 6.02891 37.5548 8.03668 38.6C10.0441 39.6452 12.2428 40.1679 14.632 40.1679H18.116L20.1065 32.8013C20.2725 32.204 20.1642 31.6654 19.7831 31.1838C19.4013 30.7032 18.9123 30.462 18.3146 30.462H15.1295C14.2664 30.462 13.4697 30.2806 12.7406 29.915C12.01 29.5501 11.4127 29.0607 10.9483 28.4461C10.4836 27.833 10.1601 27.1274 9.97801 26.3311C9.7952 25.5349 9.82016 24.6886 10.0525 23.7929C10.4175 22.5979 11.0556 21.6525 11.9689 20.9558C12.8809 20.2586 13.9349 19.9106 15.1295 19.9106H20.3558C21.3177 19.9106 22.1639 19.629 22.8941 19.064C23.6232 18.5004 24.121 17.7537 24.3872 16.8242L26.1292 10.1547ZM82.6204 20.5574L82.7698 20.0097C82.8359 19.7446 82.7947 19.521 82.6453 19.3382C82.4959 19.1561 82.2885 19.064 82.023 19.064H65.8469C65.1501 19.064 64.5194 18.9149 63.9555 18.6161C63.3913 18.3173 62.9269 17.9277 62.5623 17.4465C62.1967 16.9662 61.9478 16.41 61.8156 15.779C61.6823 15.1493 61.6989 14.5021 61.8648 13.838L62.8604 10.0552H84.7607C86.1212 10.0552 87.3654 10.354 88.4936 10.9513C89.6214 11.5483 90.5593 12.3284 91.3061 13.2906C92.0528 14.2532 92.5664 15.3561 92.8487 16.6002C93.1303 17.8448 93.1054 19.1311 92.7742 20.4579L88.842 35.091C88.444 36.5845 87.6393 37.796 86.4281 38.7244C85.2166 39.654 83.8315 40.1184 82.2719 40.1184L66.0959 40.0685C64.6685 40.0685 63.3582 39.7619 62.164 39.1474C60.969 38.5342 59.9903 37.7214 59.227 36.7089C58.4638 35.6971 57.9333 34.5356 57.6344 33.2249C57.336 31.9143 57.3694 30.5787 57.7339 29.2178L57.9333 28.4711C58.165 27.543 58.5555 26.6795 59.1026 25.8833C59.6503 25.0866 60.2887 24.4067 61.0189 23.8424C61.7558 23.2747 62.5793 22.8293 63.4577 22.5234C64.3539 22.2084 65.2999 22.0505 66.2952 22.0505H79.8831L78.8875 25.7838C78.6217 26.6795 78.1239 27.4097 77.394 27.9736C76.6642 28.5383 75.8345 28.8195 74.9057 28.8195H68.8331C68.2689 28.8195 67.9039 29.1022 67.7383 29.6661C67.6389 30.0317 67.705 30.3551 67.9373 30.6364C68.1694 30.9187 68.4678 31.0593 68.8331 31.0593H78.6382C79.0035 31.0593 79.3185 30.9598 79.5843 30.7608C79.8493 30.5615 80.0149 30.2968 80.0821 29.9645L80.1816 29.5662L82.6204 20.5574ZM118.233 11.7227C116.225 10.6775 114.01 10.1547 111.588 10.1547H98.0005L90.6339 37.8287C90.4683 38.4256 90.5766 38.9656 90.9577 39.4462C91.3388 39.9278 91.8285 40.1679 92.4258 40.1679H97.7509C98.4477 40.1679 99.07 39.969 99.6177 39.5706C100.165 39.1723 100.522 38.6418 100.688 37.9781L105.516 19.9106H111.091C111.953 19.9106 112.749 20.1015 113.479 20.4825C114.209 20.8647 114.806 21.3622 115.271 21.976C115.735 22.5902 116.059 23.2947 116.242 24.0913C116.424 24.8876 116.399 25.7011 116.167 26.5301L113.181 37.8287C113.014 38.4256 113.114 38.9656 113.479 39.4462C113.844 39.9278 114.342 40.1679 114.973 40.1679H120.348C121.011 40.1679 121.617 39.969 122.165 39.5706C122.712 39.1723 123.068 38.6418 123.235 37.9781L125.724 28.6205C126.354 26.2984 126.428 24.0252 125.947 21.8016C125.466 19.579 124.562 17.6043 123.235 15.8788C121.907 14.1537 120.24 12.7679 118.233 11.7227ZM140.904 19.6363C140.506 19.9524 140.223 20.3584 140.058 20.8563L137.818 29.3173C137.685 29.7824 137.769 30.2135 138.067 30.6114C138.366 31.0097 138.764 31.2091 139.262 31.2091H159.867L158.275 37.1319C158.009 38.0276 157.511 38.7578 156.781 39.3217C156.051 39.8863 155.221 40.1679 154.293 40.1679H135.529C134.168 40.1679 132.923 39.8779 131.796 39.2968C130.667 38.7167 129.73 37.9369 128.983 36.9575C128.237 35.9794 127.722 34.8671 127.441 33.6229C127.159 32.3784 127.2 31.1092 127.565 29.8151L130.601 18.5166C130.932 17.2897 131.447 16.1611 132.144 15.1321C132.841 14.1041 133.662 13.2245 134.608 12.4943C135.553 11.7645 136.615 11.1925 137.793 10.777C138.968 10.3627 140.205 10.1522 141.452 10.1547H154.741C156.101 10.1547 157.346 10.4535 158.474 11.0508C159.601 11.6481 160.54 12.4282 161.286 13.3901C162.033 14.3527 162.538 15.4643 162.804 16.7247C163.069 17.9861 163.036 19.263 162.704 20.5574L161.808 23.9419C161.41 25.4354 160.605 26.6384 159.395 27.5507C158.183 28.4634 156.814 28.9193 155.288 28.9193H140.257L141.253 25.236C141.484 24.3402 141.965 23.6108 142.696 23.0458C143.425 22.4822 144.271 22.1999 145.234 22.1999H151.307C151.87 22.1999 152.235 21.9183 152.401 21.3537L152.6 20.607C152.7 20.2424 152.633 19.9102 152.401 19.6117C152.169 19.3129 151.87 19.1638 151.506 19.1638H142.248C141.75 19.1638 141.302 19.3217 140.904 19.6367V19.6363ZM169.821 2.58906L159.817 40.1676V40.1679C161.31 40.1679 162.736 39.9278 164.097 39.4462C165.457 38.9656 166.693 38.3015 167.805 37.4553C168.917 36.6091 169.879 35.5888 170.692 34.3942C171.505 33.1996 172.093 31.8732 172.459 30.4124L179.925 2.68891C180.09 2.0916 179.982 1.55301 179.601 1.07137C179.219 0.590781 178.713 0.349609 178.083 0.349609H172.758C172.061 0.349609 171.438 0.557031 170.891 0.971875C170.344 1.38672 169.986 1.92602 169.821 2.58906Z" fill="white"/>
</svg>
