<?xml version="1.0" encoding="UTF-8"?>
<svg width="180px" height="53px" viewBox="0 0 180 53" version="1.1" xmlns="http://www.w3.org/2000/svg" xmlns:xlink="http://www.w3.org/1999/xlink">
    <title>python-3@3x</title>
    <defs>
        <filter id="filter-1">
            <feColorMatrix in="SourceGraphic" type="matrix" values="0 0 0 0 1.000000 0 0 0 0 1.000000 0 0 0 0 1.000000 0 0 0 1.000000 0"></feColorMatrix>
        </filter>
    </defs>
    <g id="For-Figma" stroke="none" stroke-width="1" fill="none" fill-rule="evenodd">
        <g id="python-3" transform="translate(-165.000000, -4133.000000)" filter="url(#filter-1)">
            <g transform="translate(165.000000, 4133.649285)">
                <path d="M67.8687758,22.2410888 C67.8687758,16.7205281 66.2947222,13.8863218 63.1462359,13.7312669 C61.8932863,13.6721262 60.6706652,13.8715366 59.4806473,14.3336685 C58.5309835,14.6733486 57.8918086,15.0099959 57.5555404,15.3500552 L57.5555404,28.5270672 C59.5693584,29.791011 61.3576076,30.3786273 62.9172551,30.2861252 C66.2166261,30.0673802 67.8687758,27.388608 67.8687758,22.2410888 Z M71.7523511,22.4700697 C71.7523511,25.2747056 71.0945999,27.6028036 69.7715154,29.4539846 C68.297167,31.5493107 66.2537786,32.6282502 63.6413501,32.6873909 C61.6718876,32.7499436 59.6429052,32.133136 57.5551613,30.8396218 L57.5551613,42.816001 L54.1776942,41.611198 L54.1776942,15.0281931 C54.7319491,14.3484537 55.445429,13.7646284 56.3097937,13.2691351 C58.3201998,12.0976935 60.7624091,11.4956711 63.637559,11.4661007 L63.6853265,11.5138683 C66.3129193,11.4808859 68.3373524,12.5598253 69.7601421,14.7472745 C71.0870177,16.7538896 71.7523511,19.3257536 71.7523511,22.4700697 L71.7523511,22.4700697 Z M92.3936071,30.3301016 C92.3936071,34.0919835 92.0167744,36.6968299 91.263109,38.1453989 C90.5056526,39.5935888 89.0642866,40.7502453 86.9359782,41.6115771 C85.2102817,42.2913165 83.3439363,42.6609461 81.3414915,42.7238779 L80.7830664,40.5955695 C82.8192518,40.3188211 84.2530357,40.0413146 85.084418,39.7641871 C86.7214034,39.2099322 87.8446984,38.3603528 88.4618851,37.2218935 C88.9569992,36.294597 89.2007652,34.5245449 89.2007652,31.9049134 L89.2007652,31.0253844 C86.8912435,32.0751326 84.4710224,32.596026 81.940102,32.596026 C80.2769582,32.596026 78.810192,32.0751326 77.5462482,31.0253844 C76.1272495,29.8835132 75.4179397,28.4353233 75.4179397,26.6800564 L75.4179397,12.6227572 L78.7954068,11.4661007 L78.7954068,25.6147648 C78.7954068,27.1258866 79.2829388,28.2901252 80.2583819,29.1067223 C81.233825,29.9233195 82.4977688,30.3153164 84.0460431,30.2853669 C85.5943174,30.2520055 87.253291,29.6533951 89.0157609,28.4819535 L89.0157609,11.975621 L92.3932279,11.975621 L92.3932279,30.3301016 L92.3936071,30.3301016 Z M105.577822,32.5027656 C105.207872,32.5340192 104.836788,32.5499554 104.465521,32.5505332 C102.5552,32.5505332 101.065687,32.0963626 100.001912,31.1834722 C98.9411695,30.2709609 98.4092819,29.0111873 98.4092819,27.4033931 L98.4092819,14.1005175 L96.0959691,14.1005175 L96.0959691,11.9760001 L98.4092819,11.9760001 L98.4092819,6.3333668 L101.782958,5.13235483 L101.782958,11.9760001 L105.577822,11.9760001 L105.577822,14.1005175 L101.782958,14.1005175 L101.782958,27.310891 C101.782958,28.5786258 102.122638,29.4763519 102.802377,30.0014156 C103.386203,30.4335979 104.313878,30.681155 105.577443,30.7440868 L105.577443,32.5027656 L105.577822,32.5027656 Z M126.02725,32.2256382 L122.649783,32.2256382 L122.649783,19.1888958 C122.649783,17.8623994 122.339673,16.7205281 121.722486,15.7674523 C121.009385,14.6881338 120.019157,14.1486641 118.747631,14.1486641 C117.199357,14.1486641 115.263256,14.9652613 112.938949,16.5984556 L112.938949,32.2256382 L109.561861,32.2256382 L109.561861,1.06415423 L112.938949,0 L112.938949,14.1930197 C115.096828,12.622378 117.454496,11.8353513 120.015366,11.8353513 C121.803994,11.8353513 123.252184,12.4377528 124.361073,13.6387648 C125.473374,14.8393976 126.027629,16.3361133 126.027629,18.1247416 L126.027629,32.2256382 L126.02725,32.2256382 L126.02725,32.2256382 Z M143.97836,21.7092013 C143.97836,19.5880958 143.575748,17.8366201 142.773557,16.4509828 C141.820102,14.7624388 140.338551,13.8715366 138.335727,13.7794136 C134.632986,13.9936092 132.785217,16.6466022 132.785217,21.7315686 C132.785217,24.0630786 133.169632,26.0105529 133.945664,27.5736123 C134.935893,29.5654422 136.421614,30.5484674 138.40245,30.515106 C142.119597,30.4851565 143.97836,27.551245 143.97836,21.7092013 L143.97836,21.7092013 Z M147.67731,21.7311895 C147.67731,24.7504002 146.905069,27.2631234 145.363998,29.2693593 C143.667492,31.5163284 141.325367,32.6430353 138.335727,32.6430353 C135.372245,32.6430353 133.062723,31.5159493 131.396168,29.2693593 C129.884667,27.2631234 129.130622,24.7504002 129.130622,21.7311895 C129.130622,18.8935712 129.947219,16.5063325 131.580793,14.5626493 C133.306489,12.5006846 135.575068,11.4661007 138.380083,11.4661007 C141.184339,11.4661007 143.468082,12.5006846 145.22714,14.5626493 C146.860713,16.5063325 147.67731,18.8935712 147.67731,21.7311895 L147.67731,21.7311895 Z M167.039837,32.2256382 L163.66237,32.2256382 L163.66237,18.4500157 C163.66237,16.9388939 163.2082,15.7598702 162.2991,14.9099116 C161.390001,14.0637441 160.177616,13.6535499 158.666494,13.6865323 C157.063249,13.7161026 155.536584,14.2407872 154.088394,15.2571739 L154.088394,32.2256382 L150.710927,32.2256382 L150.710927,14.8397767 C152.65461,13.4249482 154.443239,12.5006846 156.076433,12.0685023 C157.617125,11.6658903 158.976983,11.4661007 160.148425,11.4661007 C160.949857,11.4661007 161.704281,11.5434386 162.413591,11.6988726 C163.740087,12.0055704 164.819406,12.5746105 165.650409,13.4097839 C166.578085,14.3336685 167.039837,15.4417991 167.039837,16.7391044 L167.039837,32.2256382 L167.039837,32.2256382 Z" id="Shape" fill="#FFFFFF" fill-rule="nonzero"></path>
                <path d="M20.8200416,1.18888054 C19.0822136,1.19684179 17.4228609,1.34507275 15.9629186,1.60362394 C11.661567,2.36373411 10.880606,3.95408929 10.880606,6.8876217 L10.880606,10.7617193 L21.0452313,10.7617193 L21.0452313,12.0529589 L7.06564907,12.0529589 C4.11164487,12.0529589 1.52461656,13.8286975 0.715601548,17.2065437 C-0.217760661,21.0783667 -0.259083358,23.4944176 0.715601548,27.537218 C1.43818009,30.5465719 3.16387659,32.6908029 6.11788078,32.6908029 L9.61287112,32.6908029 L9.61287112,28.0467383 C9.61287112,24.6916385 12.5156958,21.7323268 15.9629186,21.7323268 L26.1157916,21.7323268 C28.9420367,21.7323268 31.1981043,19.4053661 31.1981043,16.5669897 L31.1981043,6.88724259 C31.1981043,4.13264884 28.8741765,2.06310201 26.1157916,1.60324483 C24.3692442,1.31284863 22.5578695,1.18054018 20.8200416,1.18888054 Z M15.3229855,4.30438445 C16.3731128,4.30438445 17.2302744,5.17595217 17.2302744,6.24730944 C17.2302744,7.31487564 16.3727336,8.1784821 15.3229855,8.1784821 C14.2694463,8.1784821 13.4156966,7.31525475 13.4156966,6.24730944 C13.4156966,5.17595217 14.2694463,4.30438445 15.3229855,4.30438445 Z" id="Shape" fill="#FFFFFF" fill-rule="nonzero"></path>
                <path d="M32.4658392,12.0525798 L32.4658392,16.5662314 C32.4658392,20.0657711 29.4989453,23.0110558 26.1157916,23.0110558 L15.9629186,23.0110558 C13.1817874,23.0110558 10.880606,25.3910915 10.880606,28.176393 L10.880606,37.8553818 C10.880606,40.6103547 13.275806,42.2306593 15.9629186,43.020719 C19.1804024,43.9669708 22.2659569,44.1379482 26.1157916,43.020719 C28.674766,42.2799433 31.1981043,40.7885351 31.1981043,37.8553818 L31.1981043,33.9816633 L21.0452313,33.9816633 L21.0452313,32.6904238 L36.280417,32.6904238 C39.2348003,32.6904238 40.3353488,30.6295964 41.3627296,27.5368389 C42.4242301,24.3530957 42.3791163,21.2906668 41.3627296,17.2061646 C40.6325689,14.2654291 39.2382122,12.0525798 36.280417,12.0525798 L32.4658392,12.0525798 Z M26.7553457,36.5641423 C27.8088849,36.5641423 28.6626346,37.4273697 28.6626346,38.495315 C28.6626346,39.5666722 27.8088849,40.4382399 26.7553457,40.4382399 C25.7052184,40.4382399 24.8480568,39.5666722 24.8480568,38.495315 C24.8480568,37.4277488 25.7055975,36.5641423 26.7553457,36.5641423 Z" id="Shape" fill="#FFFFFF" fill-rule="nonzero"></path>
                <path d="M173.61697,8.96475067 L174.209136,8.96475067 L174.209136,5.25101542 L175.611454,5.25101542 L175.611454,4.80821807 L172.213894,4.80821807 L172.213894,5.25101542 L173.616591,5.25101542 L173.616591,8.96475067 M176.136896,8.96475067 L176.642626,8.96475067 L176.642626,5.57287753 L177.74052,8.96437157 L178.303495,8.96437157 L179.44802,5.58425075 L179.44802,8.96475067 L180,8.96475067 L180,4.80859718 L179.269839,4.80859718 L178.019164,8.36955219 L176.953115,4.80859718 L176.136896,4.80859718 L176.136896,8.96475067" id="Shape" fill="#FFFFFF" fill-rule="nonzero"></path>
                <path d="M34.7821849,49.6008846 C34.7821849,51.0596896 28.6834855,52.2421253 21.1601008,52.2421253 C13.6370953,52.2421253 7.53839589,51.0596896 7.53839589,49.6008846 C7.53839589,48.1420797 13.6370953,46.9592649 21.1601008,46.9592649 C28.6834855,46.9592649 34.7821849,48.1420797 34.7821849,49.6008846 Z" id="Path" fill="#FFFFFF" fill-rule="nonzero" opacity="0.444"></path>
            </g>
        </g>
    </g>
</svg>