<svg xmlns="http://www.w3.org/2000/svg" width="400" height="400"><defs><clipPath id="a"><path d="M0 256h256V0H0v256z"/></clipPath></defs><g clip-path="url(#a)" transform="matrix(1.25 0 0 -1.25 40 334.87)"><path d="M177.283 105.373c0-12.84-5.537-23.002-13.898-23.002H128.17v-3.388h23.71V68.207c0-5.13-1.618-11.24-21.942-11.24h-4.646c-20.324 0-22.526 6.108-22.525 11.24v24.156c0 7.192 6.045 13.717 13.234 13.717h26.944c7.19 0 12.322 5.11 12.323 12.3v14.798h8.118c8.36 0 13.898-12.18 13.898-25.018v-2.787zM99.38 97.166V82.37h-6.424c-8.362 0-15.592 12.18-15.592 25.017v2.79c0 12.836 7.23 23 15.592 23h33.52v3.387h-23.71v10.775c0 5.13 3.312 11.24 23.636 11.24h4.645c20.325 0 20.834-6.11 20.834-11.24v-24.157c0-7.19-4.352-13.715-11.54-13.715h-26.944c-7.19 0-14.017-5.11-14.017-12.302m119.186.728l11.305 10-11.304 10.137-26.805-2.948c-.19 1.667-.442 3.328-.762 4.98l22.958 3.293-7.198 5.87-17.088-3.655c-1.36 4.716-3.26 9.306-5.718 13.67l14.905 9.065 1.005 9.172-18.898-13.44c-.95 1.384-1.957 2.737-3.03 4.058l21.09 16.736.93 15.062-15.163-.826-16.872-21.03c-1.323 1.05-2.674 2.042-4.057 2.976l13.902 18.563-9.237-.936-9.497-14.668c-4.382 2.423-8.985 4.294-13.71 5.614l4.123 16.95-5.777 7.2-3.858-22.868c-1.66.31-3.33.547-5.004.728l3.08 26.756-9.995 11.293-10.132-11.3 2.936-26.802c-1.666-.19-3.324-.44-4.974-.76l-3.296 22.952-5.868-7.198 3.65-17.082c-4.714-1.357-9.305-3.263-13.67-5.718L87.47 178.64l-9.17 1 13.436-18.893c-1.384-.95-2.738-1.956-4.056-3.027l-16.73 21.086-15.07.92.83-15.16 21.035-16.86c-1.055-1.324-2.05-2.678-2.985-4.062l-18.553 13.904.93-9.242 14.663-9.493c-2.422-4.38-4.288-8.985-5.61-13.71l-16.952 4.117-7.197-5.777 22.87-3.85c-.31-1.663-.554-3.34-.732-5.02l-26.75 3.087-11.3-9.992 11.307-10.14 26.797 2.945c.192-1.67.444-3.332.765-4.98L42.042 92.2l7.196-5.868 17.09 3.646c1.356-4.714 3.258-9.3 5.714-13.663L57.138 67.25l-1-9.172 18.893 13.44c.95-1.383 1.96-2.736 3.028-4.062L56.973 50.728l-.924-15.066 15.16.826 16.874 21.028c1.318-1.05 2.673-2.04 4.05-2.98l-13.9-18.556 9.238.936 9.5 14.663c4.38-2.427 8.984-4.295 13.712-5.614l-4.13-16.947 5.777-7.2 3.864 22.867c1.66-.305 3.33-.55 5.005-.727l-3.083-26.753 9.997-11.303 10.142 11.307-2.942 26.808c1.663.19 3.32.443 4.97.757l3.293-22.955 5.864 7.194-3.642 17.09c4.71 1.362 9.3 3.265 13.665 5.722l9.065-14.91 9.167-1.002-13.437 18.902c1.386.948 2.743 1.957 4.062 3.028l16.725-21.1 15.068-.91-.828 15.153-21.03 16.876c1.056 1.32 2.046 2.672 2.977 4.057l18.56-13.908-.932 9.238-14.664 9.497c2.42 4.386 4.29 8.99 5.608 13.716l16.954-4.13 7.198 5.778-22.868 3.86c.306 1.663.55 3.33.726 5.008l26.752-3.084zm-77.054-34.796c2.628 0 4.76 2.132 4.76 4.763 0 2.63-2.133 4.762-4.76 4.76-2.63.002-4.762-2.13-4.762-4.76 0-2.632 2.132-4.762 4.762-4.762m-26.684 89.35c-2.628 0-4.76-2.132-4.76-4.762 0-2.63 2.132-4.76 4.76-4.76 2.63 0 4.762 2.13 4.762 4.76s-2.132 4.763-4.762 4.763M23.303 3.078l3.57 10.525-6.648 8.908 11.114-.14 6.416 9.072 3.3-10.612 10.612-3.3-9.074-6.417L42.736 0l-8.908 6.647-10.525-3.57zM127.387 256l4.92-9.967 10.997-1.597-7.96-7.76 1.88-10.953-9.837 5.173-9.837-5.172 1.88 10.954-7.96 7.758 11 1.597 4.917 9.967zM232.697 3.078l-10.525 3.568L213.265 0l.14 11.113-9.072 6.417 10.612 3.3 3.3 10.612 6.417-9.074 11.113.142-6.646-8.907 3.567-10.525z" fill="#fdd649"/></g></svg>
